<svg width="317" height="317" viewBox="0 0 317 317" fill="none" xmlns="http://www.w3.org/2000/svg">
<path d="M62.18 79.53C61.64 79.49 61.18 79.48 60.8 79.48C59.25 79.48 58.89 79.73 58.87 79.74C58.87 79.74 58.43 80.3 58.42 83.14C58.32 111.6 58.24 140.06 58.19 168.52C58.18 175.4 59.96 181.46 63.51 186.53C75.17 203.18 86.93 216.31 99.46 226.66C109.47 234.93 117.95 239.68 126.94 242.07C135.28 244.3 142.63 243.62 149.76 239.88C147.88 238.1 146.1 236.4 144.36 234.67L140.84 231.25C138.26 228.76 135.88 226.47 133.35 223.65L131.97 222.3C126.22 216.72 128.64 212.39 130.6 210.3C132.19 208.6 134.01 207.72 135.99 207.7C138.82 207.4 141.35 209.63 143.07 211.38L156.21 224.55C159.86 228.21 163.53 231.85 167.24 235.44C170.92 239.01 175.69 239.05 179.1 235.58C182.56 232.05 182.35 227.64 178.56 223.79C175.39 220.56 172.18 217.37 168.97 214.17L162.72 207.92C160.75 205.94 158.78 203.96 156.78 202.01C151.02 196.42 153.43 192.09 155.38 190.01C156.99 188.3 158.8 187.43 160.79 187.4C164.08 187.1 166.16 189.34 167.87 191.08L179.05 202.27C186.55 209.81 194.06 217.35 201.6 224.85C203.64 226.87 207.76 229.82 212.57 226.86C214.81 225.48 216.2 223.4 216.5 221.02C216.82 218.34 215.77 215.6 213.52 213.3C209.86 209.56 206.18 205.85 202.5 202.13C196.43 196.01 190.36 189.9 184.43 183.65L181.28 180.48C175.51 174.89 177.92 170.56 179.87 168.48C181.48 166.77 183.3 165.89 185.28 165.87C188.1 166.09 190.64 167.81 192.36 169.55L195.09 172.26C195.99 172.84 196.78 173.81 197.41 174.58L211.47 188.71H211.31C218.15 195.63 225 202.53 231.88 209.41C233.33 210.87 234.82 211.94 236.2 212.53C239.55 213.96 243.74 212.61 245.92 209.36C249.07 204.69 246.53 200.43 243.85 197.69L168.69 120.94C166.73 118.93 164.85 116.85 162.86 114.65L161.99 113.69L155.92 118.2C149.63 122.85 143.59 127.32 137.62 131.89C129.46 138.16 120.2 140.62 110.19 139.26C99.53 137.82 91.14 132.03 87.17 123.35C83.32 114.96 84.33 105.21 89.93 96.6C92.82 92.15 96.69 88.51 100.44 84.99C101.31 84.17 102.18 83.35 103.04 82.52L95.87 81.99C84.33 81.13 73.26 80.31 62.2 79.54L62.18 79.53Z" fill="#09374E"/>
<path d="M201.9 0H114.26C51.16 0 0 51.16 0 114.26V316.16H201.9C265.01 316.16 316.16 265 316.16 201.9V114.26C316.16 51.16 265 0 201.9 0ZM266.03 179.65C263.65 179.68 261.78 179.08 260.34 177.71C258.17 175.62 257.89 172.56 257.89 170.12L257.85 165.1C257.69 160.81 257.74 156.44 257.8 152.06L257.87 137.05C257.89 126.13 257.9 115.21 257.75 104.29C257.74 103.21 257.17 101.83 256.82 101.49C228.01 81.74 200.21 72.22 171.7 72.82C149.25 73.19 128.87 80.92 111.11 95.8C107.5 98.83 104.1 103.1 101.54 107.82C98.78 112.91 100.39 118.02 105.85 121.49C115 127.31 125.11 121.47 130.32 117.47C132.88 115.51 135.1 113.85 137.65 112.15C142.14 109.17 146.57 106.13 151 103.09L156.75 99.16C161.79 95.74 166.58 96.33 170.98 100.93C180.15 110.5 189.44 119.96 198.74 129.42L222.03 153.19C232.84 164.25 243.67 175.3 254.55 186.29C261.04 192.84 263.7 199.89 262.68 207.84C261.79 214.77 257.94 220.92 252.1 224.7C246.1 228.59 238.66 229.61 231.69 227.48C231.39 227.39 231.11 227.29 230.81 227.19C227.11 235.3 222.4 240.28 216.48 242.37C210.41 244.51 203.32 243.5 194.93 239.28C189.04 250.15 181.11 254.62 170.4 253.5C169.71 253.42 168.79 253.27 167.95 252.76C164.09 250.38 161.09 251.58 155.72 254.13L154.15 254.87C148.24 257.6 142.16 258.97 135.83 258.97C127.34 258.97 118.41 256.5 108.88 251.54C88.3 240.84 73.08 223.93 62.13 210.4L59 206.62C52.66 199.05 46.1 191.22 44.41 180.58C42.86 170.82 42.8 160.87 42.73 151.25C42.63 135.89 42.73 120.52 42.82 105.17L42.92 84.18C42.95 76.77 44.71 71.55 48.31 68.23C51.9 64.9 57.24 63.59 64.62 64.13C84.02 65.62 103.41 67.06 122.82 68.43C123.98 68.55 125.09 68.38 125.73 68.07C155.43 54.25 187.01 53.61 222.27 66.11C237.99 71.69 253.32 79.73 267.82 90.03C271.67 92.76 273.45 96.24 273.41 100.98C273.31 116.93 273.31 132.89 273.33 148.86L273.41 165.66C273.47 166.12 273.53 166.97 273.38 167.82L273.47 170.13C273.63 178.16 268.88 179.55 266.03 179.66V179.65Z" fill="#09374E"/>
</svg>
